<svg width="24" height="22" viewBox="0 0 24 22" fill="none" xmlns="http://www.w3.org/2000/svg">
<path d="M16.8 21.6C16.14 21.6 15.575 21.365 15.105 20.895C14.635 20.425 14.4 19.86 14.4 19.2V14.4C14.4 13.74 14.635 13.175 15.105 12.705C15.575 12.235 16.14 12 16.8 12H21.6C22.26 12 22.825 12.235 23.295 12.705C23.765 13.175 24 13.74 24 14.4V19.2C24 19.86 23.765 20.425 23.295 20.895C22.825 21.365 22.26 21.6 21.6 21.6H16.8ZM16.2 19.8H22.2V13.8H16.2V19.8ZM0 17.7V15.9H10.8V17.7H0ZM16.8 9.6C16.14 9.6 15.575 9.365 15.105 8.895C14.635 8.425 14.4 7.86 14.4 7.2V2.4C14.4 1.74 14.635 1.175 15.105 0.705C15.575 0.235 16.14 0 16.8 0H21.6C22.26 0 22.825 0.235 23.295 0.705C23.765 1.175 24 1.74 24 2.4V7.2C24 7.86 23.765 8.425 23.295 8.895C22.825 9.365 22.26 9.6 21.6 9.6H16.8ZM16.2 7.8H22.2V1.8H16.2V7.8ZM0 5.7V3.9H10.8V5.7H0Z" fill="#858585"/>
</svg>
